<?xml version="1.0" standalone="no"?>
<!DOCTYPE svg PUBLIC "-//W3C//DTD SVG 20010904//EN"
 "http://www.w3.org/TR/2001/REC-SVG-20010904/DTD/svg10.dtd">
<svg version="1.0" xmlns="http://www.w3.org/2000/svg"
 width="245.000000pt" height="114.000000pt" viewBox="0 0 245.000000 114.000000"
 preserveAspectRatio="xMidYMid meet">

<g transform="translate(0.000000,114.000000) scale(0.100000,-0.100000)"
fill="#000000" stroke="none">
<path d="M1030 1000 c-200 -36 -328 -69 -407 -105 -17 -8 -34 -15 -38 -15 -11
0 -115 -45 -220 -95 -124 -59 -123 -59 -202 -30 -39 14 -90 25 -114 25 -53 0
-40 -12 38 -35 29 -9 53 -19 53 -24 0 -4 18 -14 40 -21 22 -7 40 -17 40 -22 0
-16 22 -8 146 52 68 33 127 60 130 60 3 0 20 6 37 14 138 63 290 113 467 153
99 22 281 14 342 -15 26 -12 50 -22 54 -22 4 0 25 -9 48 -19 23 -11 88 -38
145 -60 86 -34 115 -41 175 -41 165 -1 411 -42 486 -82 19 -10 39 -18 45 -18
6 0 33 -20 60 -45 l50 -44 -141 -1 -141 0 -54 -49 -53 -49 -17 -108 c-10 -60
-19 -118 -21 -129 -3 -19 3 -20 120 -23 l122 -3 0 26 c0 14 1 28 3 33 1 4 -23
9 -53 12 -48 4 -55 8 -52 25 27 195 33 204 119 205 79 0 81 -2 71 -68 -5 -31
-13 -70 -18 -87 -5 -16 -12 -56 -16 -88 l-6 -58 63 3 63 3 19 110 c10 61 23
138 29 172 11 59 10 63 -17 110 -16 26 -36 54 -44 61 -32 26 -129 71 -187 87
-103 29 -135 33 -319 45 -169 11 -185 13 -260 45 -307 130 -266 118 -410 121
-71 1 -150 -1 -175 -6z"/>
<path d="M1035 926 c-80 -14 -187 -44 -320 -90 -138 -47 -169 -66 -147 -88 8
-8 16 -5 29 10 20 23 75 46 168 68 33 8 72 19 87 25 24 10 30 7 73 -36 25 -26
48 -45 51 -42 3 3 -4 23 -15 46 -27 51 -26 61 1 61 12 0 65 7 118 16 94 16 98
15 168 -6 40 -11 89 -32 109 -46 20 -13 42 -24 49 -24 8 0 14 -4 14 -9 0 -5
-29 -14 -65 -21 -102 -19 -93 -34 16 -25 52 4 114 10 139 14 l45 6 -35 21
c-19 12 -80 45 -135 74 -95 50 -105 53 -185 56 -47 2 -121 -3 -165 -10z"/>
<path d="M1461 739 c-200 -14 -142 -26 136 -26 147 0 310 -5 361 -10 50 -5 92
-5 92 -1 0 4 -8 8 -18 8 -10 0 -23 5 -28 10 -27 27 -305 36 -543 19z"/>
<path d="M2092 736 c75 -22 123 -49 122 -68 -1 -14 6 -18 37 -18 22 0 39 4 39
8 0 29 -110 80 -185 87 l-60 5 47 -14z"/>
<path d="M1002 710 c-6 -11 -12 -29 -12 -39 0 -18 -3 -19 -32 -10 -18 6 -42
15 -53 20 -30 13 -150 29 -232 29 -101 0 -214 -17 -260 -40 -27 -14 -31 -19
-13 -15 14 3 59 12 100 20 86 17 139 19 207 6 26 -5 93 -15 149 -21 55 -7 107
-16 114 -20 14 -9 12 -26 -21 -226 l-12 -72 38 -46 37 -46 73 0 c76 0 85 5 85
51 0 16 -7 19 -44 19 -24 0 -48 6 -53 13 -12 14 8 161 26 194 9 18 22 23 64
25 48 3 52 5 55 31 3 27 2 27 -51 27 l-55 0 5 60 6 60 -54 0 c-43 0 -57 -4
-67 -20z"/>
<path d="M97 669 c-17 -10 -52 -68 -45 -75 2 -2 20 8 39 21 26 19 54 27 105
32 50 5 62 8 44 13 -53 14 -126 19 -143 9z"/>
<path d="M124 562 c-60 -54 -61 -57 -80 -177 -23 -150 -40 -135 145 -135 l160
0 48 41 c60 52 63 57 63 96 0 17 4 34 9 37 5 3 12 32 15 63 4 32 10 73 13 91
l5 32 -163 0 -164 0 -51 -48z m232 -74 c-10 -87 -25 -140 -44 -155 -18 -13
-138 -18 -144 -5 -2 4 2 48 10 98 17 109 31 123 126 124 l59 0 -7 -62z"/>
<path d="M571 564 c-28 -26 -51 -55 -51 -65 0 -10 -4 -20 -8 -23 -5 -3 -14
-51 -22 -108 -7 -57 -16 -110 -20 -118 -4 -8 -11 -39 -15 -68 l-7 -53 63 3 64
3 11 65 c16 84 43 246 49 285 7 42 48 65 119 65 65 0 62 7 42 -118 -15 -95
-29 -111 -92 -112 -35 0 -43 -4 -48 -22 -12 -46 -10 -48 70 -48 l75 0 50 47
c52 50 68 91 83 208 4 28 9 62 12 78 l6 27 -165 0 -165 0 -51 -46z"/>
<path d="M1250 580 l0 -31 63 3 c59 3 62 4 65 31 l3 27 -65 0 -66 0 0 -30z"/>
<path d="M1401 553 c-7 -32 -19 -98 -27 -148 -8 -49 -17 -105 -21 -123 l-5
-33 63 3 64 3 7 40 c4 22 15 85 24 140 9 55 22 103 28 107 13 9 68 10 89 2 12
-4 13 -12 6 -37 -10 -33 -39 -215 -39 -242 0 -13 11 -15 57 -13 66 3 63 -3 89
163 18 118 26 135 62 135 15 0 36 -6 46 -13 20 -15 20 -25 -8 -172 -23 -122
-25 -115 44 -115 40 0 62 4 65 13 3 6 11 53 19 102 8 50 18 105 22 124 4 18 3
36 -2 40 -5 3 -22 23 -37 44 l-28 37 -253 0 -253 0 -12 -57z"/>
<path d="M1236 478 c-16 -62 -28 -120 -33 -169 l-6 -59 56 0 c34 0 59 5 64 13
4 6 15 60 24 120 l15 107 -58 0 c-38 0 -60 -4 -62 -12z"/>
</g>
</svg>
